<mxfile host="app.diagrams.net" modified="2023-06-23T08:47:20.528Z" agent="Mozilla/5.0 (Windows NT 10.0; Win64; x64) AppleWebKit/537.36 (KHTML, like Gecko) Chrome/114.0.0.0 Safari/537.36 Edg/114.0.1823.51" etag="wbR7hCKB5bfayutly3od" version="21.3.7" type="github">
  <diagram name="第 1 页" id="cgNtaq2MYU6Qqh9RHb4e">
    <mxGraphModel dx="1101" dy="591" grid="0" gridSize="10" guides="1" tooltips="1" connect="1" arrows="1" fold="1" page="1" pageScale="1" pageWidth="2336" pageHeight="1654" math="0" shadow="0">
      <root>
        <mxCell id="0" />
        <mxCell id="1" parent="0" />
        <mxCell id="JYyRSOWREe55q4rwpg1y-1" value="" style="line;strokeWidth=1;fillColor=none;align=left;verticalAlign=middle;spacingTop=-1;spacingLeft=3;spacingRight=3;rotatable=0;labelPosition=right;points=[];portConstraint=eastwest;strokeColor=inherit;" vertex="1" parent="1">
          <mxGeometry x="293" y="170" width="714" height="8" as="geometry" />
        </mxCell>
        <mxCell id="JYyRSOWREe55q4rwpg1y-2" value="顾客" style="text;align=center;fontStyle=1;verticalAlign=middle;spacingLeft=3;spacingRight=3;strokeColor=none;rotatable=0;points=[[0,0.5],[1,0.5]];portConstraint=eastwest;html=1;" vertex="1" parent="1">
          <mxGeometry x="352" y="151" width="48" height="16" as="geometry" />
        </mxCell>
        <mxCell id="JYyRSOWREe55q4rwpg1y-3" value="管理员" style="text;align=center;fontStyle=1;verticalAlign=middle;spacingLeft=3;spacingRight=3;strokeColor=none;rotatable=0;points=[[0,0.5],[1,0.5]];portConstraint=eastwest;html=1;" vertex="1" parent="1">
          <mxGeometry x="696" y="149" width="48" height="16" as="geometry" />
        </mxCell>
        <mxCell id="JYyRSOWREe55q4rwpg1y-4" value="公共物品使用情况数据库" style="text;align=center;fontStyle=1;verticalAlign=middle;spacingLeft=3;spacingRight=3;strokeColor=none;rotatable=0;points=[[0,0.5],[1,0.5]];portConstraint=eastwest;html=1;" vertex="1" parent="1">
          <mxGeometry x="1075" y="151" width="48" height="16" as="geometry" />
        </mxCell>
        <mxCell id="JYyRSOWREe55q4rwpg1y-5" value="宿舍公共物品" style="text;align=center;fontStyle=1;verticalAlign=middle;spacingLeft=3;spacingRight=3;strokeColor=none;rotatable=0;points=[[0,0.5],[1,0.5]];portConstraint=eastwest;html=1;" vertex="1" parent="1">
          <mxGeometry x="883" y="151" width="48" height="16" as="geometry" />
        </mxCell>
        <mxCell id="JYyRSOWREe55q4rwpg1y-6" style="edgeStyle=orthogonalEdgeStyle;rounded=0;orthogonalLoop=1;jettySize=auto;html=1;" edge="1" parent="1" source="JYyRSOWREe55q4rwpg1y-7" target="JYyRSOWREe55q4rwpg1y-9">
          <mxGeometry relative="1" as="geometry" />
        </mxCell>
        <mxCell id="JYyRSOWREe55q4rwpg1y-7" value="" style="ellipse;html=1;shape=startState;fillColor=#000000;strokeColor=#ff0000;" vertex="1" parent="1">
          <mxGeometry x="361" y="178" width="30" height="30" as="geometry" />
        </mxCell>
        <mxCell id="JYyRSOWREe55q4rwpg1y-8" style="edgeStyle=orthogonalEdgeStyle;rounded=0;orthogonalLoop=1;jettySize=auto;html=1;" edge="1" parent="1" source="JYyRSOWREe55q4rwpg1y-9" target="JYyRSOWREe55q4rwpg1y-10">
          <mxGeometry relative="1" as="geometry" />
        </mxCell>
        <mxCell id="JYyRSOWREe55q4rwpg1y-9" value="点击出行界面" style="html=1;whiteSpace=wrap;" vertex="1" parent="1">
          <mxGeometry x="333" y="272" width="86" height="42" as="geometry" />
        </mxCell>
        <mxCell id="JYyRSOWREe55q4rwpg1y-10" value="显示基本信息" style="html=1;whiteSpace=wrap;" vertex="1" parent="1">
          <mxGeometry x="496" y="272" width="86" height="42" as="geometry" />
        </mxCell>
        <mxCell id="JYyRSOWREe55q4rwpg1y-11" style="edgeStyle=orthogonalEdgeStyle;rounded=0;orthogonalLoop=1;jettySize=auto;html=1;entryX=0.5;entryY=0;entryDx=0;entryDy=0;" edge="1" parent="1" source="JYyRSOWREe55q4rwpg1y-12" target="JYyRSOWREe55q4rwpg1y-14">
          <mxGeometry relative="1" as="geometry" />
        </mxCell>
        <mxCell id="JYyRSOWREe55q4rwpg1y-12" value="查询课程" style="html=1;whiteSpace=wrap;" vertex="1" parent="1">
          <mxGeometry x="693" y="438" width="86" height="42" as="geometry" />
        </mxCell>
        <mxCell id="JYyRSOWREe55q4rwpg1y-13" style="edgeStyle=orthogonalEdgeStyle;rounded=0;orthogonalLoop=1;jettySize=auto;html=1;" edge="1" parent="1" source="JYyRSOWREe55q4rwpg1y-14" target="JYyRSOWREe55q4rwpg1y-23">
          <mxGeometry relative="1" as="geometry" />
        </mxCell>
        <mxCell id="JYyRSOWREe55q4rwpg1y-14" value="" style="rhombus;whiteSpace=wrap;html=1;" vertex="1" parent="1">
          <mxGeometry x="696" y="521" width="80" height="33" as="geometry" />
        </mxCell>
        <mxCell id="JYyRSOWREe55q4rwpg1y-15" value="" style="ellipse;html=1;shape=endState;fillColor=#000000;strokeColor=#ff0000;" vertex="1" parent="1">
          <mxGeometry x="361" y="855" width="30" height="30" as="geometry" />
        </mxCell>
        <mxCell id="JYyRSOWREe55q4rwpg1y-16" value="" style="endArrow=classic;html=1;rounded=0;" edge="1" parent="1">
          <mxGeometry width="50" height="50" relative="1" as="geometry">
            <mxPoint x="376" y="762" as="sourcePoint" />
            <mxPoint x="376" y="853.1923076923077" as="targetPoint" />
          </mxGeometry>
        </mxCell>
        <mxCell id="JYyRSOWREe55q4rwpg1y-17" value="" style="endArrow=none;dashed=1;html=1;dashPattern=1 3;strokeWidth=2;rounded=0;" edge="1" parent="1">
          <mxGeometry width="50" height="50" relative="1" as="geometry">
            <mxPoint x="128" y="902" as="sourcePoint" />
            <mxPoint x="128" y="99" as="targetPoint" />
          </mxGeometry>
        </mxCell>
        <mxCell id="JYyRSOWREe55q4rwpg1y-18" style="edgeStyle=orthogonalEdgeStyle;rounded=0;orthogonalLoop=1;jettySize=auto;html=1;" edge="1" parent="1">
          <mxGeometry relative="1" as="geometry">
            <mxPoint x="534.83" y="365" as="targetPoint" />
            <mxPoint x="534.83" y="314" as="sourcePoint" />
          </mxGeometry>
        </mxCell>
        <mxCell id="JYyRSOWREe55q4rwpg1y-19" value="" style="line;strokeWidth=3;rotatable=0;dashed=0;labelPosition=right;align=left;verticalAlign=middle;spacingTop=0;spacingLeft=6;points=[];portConstraint=eastwest;fontSize=13;" vertex="1" parent="1">
          <mxGeometry x="507" y="363" width="60" height="10" as="geometry" />
        </mxCell>
        <mxCell id="JYyRSOWREe55q4rwpg1y-20" value="" style="endArrow=classic;html=1;rounded=0;exitX=0.511;exitY=0.593;exitDx=0;exitDy=0;entryX=0.5;entryY=0;entryDx=0;entryDy=0;exitPerimeter=0;" edge="1" parent="1" source="JYyRSOWREe55q4rwpg1y-19" target="JYyRSOWREe55q4rwpg1y-12">
          <mxGeometry width="50" height="50" relative="1" as="geometry">
            <mxPoint x="646" y="303" as="sourcePoint" />
            <mxPoint x="705" y="465" as="targetPoint" />
          </mxGeometry>
        </mxCell>
        <mxCell id="JYyRSOWREe55q4rwpg1y-21" value="[查询请求]" style="text;html=1;strokeColor=none;fillColor=none;align=center;verticalAlign=middle;whiteSpace=wrap;rounded=0;" vertex="1" parent="1">
          <mxGeometry x="586" y="406" width="60" height="30" as="geometry" />
        </mxCell>
        <mxCell id="JYyRSOWREe55q4rwpg1y-22" style="edgeStyle=orthogonalEdgeStyle;rounded=0;orthogonalLoop=1;jettySize=auto;html=1;" edge="1" parent="1" source="JYyRSOWREe55q4rwpg1y-23" target="JYyRSOWREe55q4rwpg1y-28">
          <mxGeometry relative="1" as="geometry" />
        </mxCell>
        <mxCell id="JYyRSOWREe55q4rwpg1y-23" value="查询失败处理" style="html=1;whiteSpace=wrap;" vertex="1" parent="1">
          <mxGeometry x="496" y="516.5" width="86" height="42" as="geometry" />
        </mxCell>
        <mxCell id="JYyRSOWREe55q4rwpg1y-24" value="[查询失败]" style="text;html=1;strokeColor=none;fillColor=none;align=center;verticalAlign=middle;whiteSpace=wrap;rounded=0;" vertex="1" parent="1">
          <mxGeometry x="616" y="512" width="60" height="30" as="geometry" />
        </mxCell>
        <mxCell id="JYyRSOWREe55q4rwpg1y-25" style="edgeStyle=orthogonalEdgeStyle;rounded=0;orthogonalLoop=1;jettySize=auto;html=1;" edge="1" parent="1" source="JYyRSOWREe55q4rwpg1y-26" target="JYyRSOWREe55q4rwpg1y-30">
          <mxGeometry relative="1" as="geometry" />
        </mxCell>
        <mxCell id="JYyRSOWREe55q4rwpg1y-26" value="生成出行建议" style="html=1;whiteSpace=wrap;" vertex="1" parent="1">
          <mxGeometry x="494" y="717" width="86" height="42" as="geometry" />
        </mxCell>
        <mxCell id="JYyRSOWREe55q4rwpg1y-27" style="edgeStyle=orthogonalEdgeStyle;rounded=0;orthogonalLoop=1;jettySize=auto;html=1;entryX=0;entryY=0.5;entryDx=0;entryDy=0;" edge="1" parent="1" source="JYyRSOWREe55q4rwpg1y-28" target="JYyRSOWREe55q4rwpg1y-9">
          <mxGeometry relative="1" as="geometry">
            <Array as="points">
              <mxPoint x="313" y="538" />
              <mxPoint x="313" y="293" />
            </Array>
          </mxGeometry>
        </mxCell>
        <mxCell id="JYyRSOWREe55q4rwpg1y-28" value="报错反馈" style="html=1;whiteSpace=wrap;" vertex="1" parent="1">
          <mxGeometry x="333" y="516.5" width="86" height="42" as="geometry" />
        </mxCell>
        <mxCell id="JYyRSOWREe55q4rwpg1y-29" value="[错误信息]" style="text;html=1;strokeColor=none;fillColor=none;align=center;verticalAlign=middle;whiteSpace=wrap;rounded=0;" vertex="1" parent="1">
          <mxGeometry x="431" y="508" width="60" height="30" as="geometry" />
        </mxCell>
        <mxCell id="JYyRSOWREe55q4rwpg1y-30" value="展示出行信息" style="html=1;whiteSpace=wrap;" vertex="1" parent="1">
          <mxGeometry x="333" y="717" width="86" height="42" as="geometry" />
        </mxCell>
        <mxCell id="JYyRSOWREe55q4rwpg1y-31" value="" style="line;strokeWidth=3;rotatable=0;dashed=0;labelPosition=right;align=left;verticalAlign=middle;spacingTop=0;spacingLeft=6;points=[];portConstraint=eastwest;fontSize=13;" vertex="1" parent="1">
          <mxGeometry x="507" y="652" width="60" height="10" as="geometry" />
        </mxCell>
        <mxCell id="JYyRSOWREe55q4rwpg1y-32" value="" style="endArrow=classic;html=1;rounded=0;exitX=0.504;exitY=0.826;exitDx=0;exitDy=0;exitPerimeter=0;" edge="1" parent="1" source="JYyRSOWREe55q4rwpg1y-31" target="JYyRSOWREe55q4rwpg1y-26">
          <mxGeometry width="50" height="50" relative="1" as="geometry">
            <mxPoint x="665" y="710" as="sourcePoint" />
            <mxPoint x="715" y="660" as="targetPoint" />
          </mxGeometry>
        </mxCell>
        <mxCell id="JYyRSOWREe55q4rwpg1y-33" value="" style="endArrow=classic;html=1;rounded=0;exitX=0.5;exitY=1;exitDx=0;exitDy=0;" edge="1" parent="1" source="JYyRSOWREe55q4rwpg1y-14">
          <mxGeometry width="50" height="50" relative="1" as="geometry">
            <mxPoint x="746" y="662" as="sourcePoint" />
            <mxPoint x="536" y="649" as="targetPoint" />
          </mxGeometry>
        </mxCell>
        <mxCell id="JYyRSOWREe55q4rwpg1y-34" value="[查询成功]" style="text;html=1;strokeColor=none;fillColor=none;align=center;verticalAlign=middle;whiteSpace=wrap;rounded=0;" vertex="1" parent="1">
          <mxGeometry x="603" y="561" width="60" height="30" as="geometry" />
        </mxCell>
        <mxCell id="JYyRSOWREe55q4rwpg1y-35" style="edgeStyle=orthogonalEdgeStyle;rounded=0;orthogonalLoop=1;jettySize=auto;html=1;entryX=0.5;entryY=0;entryDx=0;entryDy=0;" edge="1" parent="1" source="JYyRSOWREe55q4rwpg1y-36" target="JYyRSOWREe55q4rwpg1y-38">
          <mxGeometry relative="1" as="geometry" />
        </mxCell>
        <mxCell id="JYyRSOWREe55q4rwpg1y-36" value="查询时间" style="html=1;whiteSpace=wrap;" vertex="1" parent="1">
          <mxGeometry x="878" y="438" width="86" height="42" as="geometry" />
        </mxCell>
        <mxCell id="JYyRSOWREe55q4rwpg1y-37" style="edgeStyle=orthogonalEdgeStyle;rounded=0;orthogonalLoop=1;jettySize=auto;html=1;entryX=0.5;entryY=0;entryDx=0;entryDy=0;jumpStyle=arc;" edge="1" parent="1" source="JYyRSOWREe55q4rwpg1y-38" target="JYyRSOWREe55q4rwpg1y-23">
          <mxGeometry relative="1" as="geometry">
            <Array as="points">
              <mxPoint x="863" y="538" />
              <mxPoint x="863" y="496" />
              <mxPoint x="539" y="496" />
            </Array>
          </mxGeometry>
        </mxCell>
        <mxCell id="JYyRSOWREe55q4rwpg1y-38" value="" style="rhombus;whiteSpace=wrap;html=1;" vertex="1" parent="1">
          <mxGeometry x="881" y="521" width="80" height="33" as="geometry" />
        </mxCell>
        <mxCell id="JYyRSOWREe55q4rwpg1y-39" value="" style="endArrow=classic;html=1;rounded=0;exitX=0.578;exitY=0.791;exitDx=0;exitDy=0;entryX=0.5;entryY=0;entryDx=0;entryDy=0;exitPerimeter=0;" edge="1" parent="1" source="JYyRSOWREe55q4rwpg1y-19" target="JYyRSOWREe55q4rwpg1y-36">
          <mxGeometry width="50" height="50" relative="1" as="geometry">
            <mxPoint x="548" y="379" as="sourcePoint" />
            <mxPoint x="746" y="448" as="targetPoint" />
          </mxGeometry>
        </mxCell>
        <mxCell id="JYyRSOWREe55q4rwpg1y-40" value="" style="endArrow=classic;html=1;rounded=0;exitX=0.5;exitY=1;exitDx=0;exitDy=0;" edge="1" parent="1" source="JYyRSOWREe55q4rwpg1y-38">
          <mxGeometry width="50" height="50" relative="1" as="geometry">
            <mxPoint x="974" y="655" as="sourcePoint" />
            <mxPoint x="547" y="649" as="targetPoint" />
          </mxGeometry>
        </mxCell>
        <mxCell id="JYyRSOWREe55q4rwpg1y-41" value="[查询失败]" style="text;html=1;strokeColor=none;fillColor=none;align=center;verticalAlign=middle;whiteSpace=wrap;rounded=0;" vertex="1" parent="1">
          <mxGeometry x="798" y="463" width="60" height="30" as="geometry" />
        </mxCell>
        <mxCell id="JYyRSOWREe55q4rwpg1y-42" value="[查询成功]" style="text;html=1;strokeColor=none;fillColor=none;align=center;verticalAlign=middle;whiteSpace=wrap;rounded=0;" vertex="1" parent="1">
          <mxGeometry x="736" y="564" width="60" height="30" as="geometry" />
        </mxCell>
        <mxCell id="JYyRSOWREe55q4rwpg1y-47" value="宿舍公共物品使用登记" style="text;align=center;fontStyle=1;verticalAlign=middle;spacingLeft=3;spacingRight=3;strokeColor=none;rotatable=0;points=[[0,0.5],[1,0.5]];portConstraint=eastwest;html=1;" vertex="1" parent="1">
          <mxGeometry x="519" y="149" width="48" height="16" as="geometry" />
        </mxCell>
      </root>
    </mxGraphModel>
  </diagram>
</mxfile>
